<?xml version="1.0" encoding="UTF-8" standalone="no"?>
<!DOCTYPE svg PUBLIC "-//W3C//DTD SVG 1.1//EN" "http://www.w3.org/Graphics/SVG/1.1/DTD/svg11.dtd">
<svg width="100%" height="100%" viewBox="0 0 1080 1080" version="1.1" xmlns="http://www.w3.org/2000/svg" xmlns:xlink="http://www.w3.org/1999/xlink" xml:space="preserve" xmlns:serif="http://www.serif.com/" style="fill-rule:evenodd;clip-rule:evenodd;stroke-linejoin:round;stroke-miterlimit:2;">
    <g id="logo" transform="matrix(1.86603,0,0,1.86603,-318.215,-568.843)">
        <g id="fox" transform="matrix(2,0,0,2,8.06288,0)">
            <g id="corpo">
                <g transform="matrix(1,0,0,1,78.381,28.4947)">
                    <path d="M238.67,214.442C171.837,249.872 213.567,314.67 247.375,322.97L211.865,322.97C211.865,322.97 162.629,315.633 166.38,263.313C170.131,210.993 222.288,210.389 238.67,214.442Z" style="fill:url(#_Linear1);"/>
                </g>
                <g transform="matrix(0.5,0,0,0.5,-21.8564,37.3878)">
                    <path d="M748.209,389.708C737.531,401.746 709.803,409.703 677.807,411.102C674.459,411.25 671.065,411.324 667.637,411.324C657.203,411.324 647.445,412.316 638.369,414.16C634.051,415.038 629.889,416.106 625.881,417.352C627.499,416.808 626.015,416.506 627.506,415.955C645.016,409.485 657.262,402.246 669.177,394.053L671.491,391.392C671.491,391.392 682.539,382.669 687.989,369.479C689.066,366.874 689.839,364.1 690.367,361.278C690.756,359.201 691.012,357.098 691.159,355.017C691.321,352.725 691.35,350.459 691.278,348.283C691.185,345.466 690.957,342.685 690.57,340.374C690.379,339.23 689.601,337.217 689.445,336.195C689.347,335.552 689.908,335.824 689.723,335.316C702.204,367.21 733.18,385.189 747.874,386.856C749.27,387.233 749.27,388.364 748.209,389.708Z" style="fill:url(#_Linear2);"/>
                    <clipPath id="_clip3">
                        <path d="M748.209,389.708C737.531,401.746 709.803,409.703 677.807,411.102C674.459,411.25 671.065,411.324 667.637,411.324C657.203,411.324 647.445,412.316 638.369,414.16C634.051,415.038 629.889,416.106 625.881,417.352C627.499,416.808 626.015,416.506 627.506,415.955C645.016,409.485 657.262,402.246 669.177,394.053L671.491,391.392C671.491,391.392 682.539,382.669 687.989,369.479C689.066,366.874 689.839,364.1 690.367,361.278C690.756,359.201 691.012,357.098 691.159,355.017C691.321,352.725 691.35,350.459 691.278,348.283C691.185,345.466 690.957,342.685 690.57,340.374C690.379,339.23 689.601,337.217 689.445,336.195C689.347,335.552 689.908,335.824 689.723,335.316C702.204,367.21 733.18,385.189 747.874,386.856C749.27,387.233 749.27,388.364 748.209,389.708Z"/>
                    </clipPath>
                    <g clip-path="url(#_clip3)">
                        <path d="M738.549,378.7C738.549,378.7 729.643,388.771 738.549,404.396C747.148,419.484 756.464,396.599 757.095,395.006C757.117,394.949 757.138,394.891 757.157,394.833C757.52,393.726 761.22,382.448 761.22,382.448L738.549,378.7Z" style="fill:rgb(69,25,0);"/>
                    </g>
                </g>
                <g transform="matrix(0.5,0,0,0.5,-21.8564,37.3878)">
                    <path d="M624.205,628.154C558.311,628.154 504.891,574.734 504.891,508.84C504.891,394.144 613.91,330.504 603.673,248.942C625.328,263.941 630.389,286.838 630.381,294.062C630.381,294.4 630.369,294.722 630.341,295.028L630.329,295.158C632.285,294.398 634.797,293.994 637.691,293.994C652.845,293.994 678.449,305.084 689.261,334.108C689.419,334.504 689.573,334.908 689.723,335.316C695.131,350.13 694.463,372.932 671.491,393.014C661.225,401.99 646.503,410.422 625.881,417.352C624.767,417.726 623.637,418.096 622.487,418.462C622.155,418.568 621.819,418.674 621.483,418.78L621.409,418.82C620.421,419.17 619.451,419.528 618.485,419.898L618.485,419.9C521.545,457.11 526.237,603.832 660.323,625.48C671.113,627.222 682.747,628.154 695.225,628.154L624.205,628.154Z" style="fill:url(#_Linear4);"/>
                </g>
            </g>
            <g id="cauda" transform="matrix(0.998512,-0.0545391,0.0545391,0.998512,-17.2583,14.453)">
                <g transform="matrix(0.5,0,0,0.5,-21.8564,37.3878)">
                    <path d="M485.677,578.919L485.677,578.919ZM481.793,574.503C483.044,575.974 484.339,577.446 485.677,578.919C484.563,577.693 483.479,576.467 482.423,575.239L481.793,574.503ZM432.715,456.199C433.137,457.012 433.547,457.829 433.945,458.65C436.495,463.907 438.54,469.302 440.021,474.768C440.139,475.204 440.253,475.64 440.364,476.077C440.641,477.165 440.895,478.257 441.126,479.351L441.128,479.359L441.264,480.017L441.394,480.675C441.33,480.344 441.264,480.013 441.195,479.683L441.128,479.359L441.126,479.351C440.895,478.258 440.641,477.166 440.364,476.077C440.253,475.64 440.139,475.203 440.021,474.768L439.841,474.115C438.503,469.326 436.732,464.594 434.57,459.964C434.365,459.524 434.157,459.086 433.945,458.65C433.649,458.039 433.346,457.431 433.036,456.823L432.715,456.199ZM250.084,424.761C250.086,424.753 250.087,424.745 250.089,424.738C250.091,424.73 250.092,424.722 250.093,424.715C250.089,424.736 250.089,424.739 250.084,424.761ZM250.19,424.267L250.186,424.282C250.188,424.271 250.19,424.265 250.192,424.254L250.19,424.267ZM250.249,423.993L250.259,423.947C250.257,423.957 250.252,423.983 250.249,423.993ZM250.284,423.828C250.286,423.824 250.287,423.82 250.288,423.816C250.289,423.812 250.289,423.809 250.29,423.806L250.284,423.828ZM250.364,423.464C250.364,423.464 250.351,423.528 250.351,423.528C250.354,423.517 250.356,423.506 250.358,423.496C250.36,423.485 250.361,423.474 250.364,423.464ZM250.381,423.386C250.384,423.374 250.386,423.364 250.389,423.354L250.381,423.386ZM250.412,423.244C250.417,423.223 250.422,423.201 250.427,423.179C250.432,423.157 250.437,423.136 250.442,423.115C250.431,423.159 250.422,423.201 250.412,423.244ZM250.482,422.932C250.486,422.916 250.489,422.9 250.492,422.883C250.496,422.867 250.499,422.85 250.503,422.834C250.497,422.867 250.49,422.899 250.482,422.932ZM250.572,422.529L250.51,422.81C250.534,422.7 250.56,422.583 250.584,422.474L250.572,422.529ZM250.607,422.368L250.588,422.454L250.587,422.459C250.591,422.441 250.595,422.422 250.599,422.404C250.603,422.385 250.607,422.367 250.611,422.349L250.607,422.368ZM480.554,573.031C475.166,566.556 470.567,560.07 466.604,553.547L466.329,553.093L466.11,552.727C464.756,550.467 463.478,548.204 462.269,545.934C462.028,545.482 461.79,545.029 461.554,544.576C461.023,543.555 460.506,542.534 460.002,541.51L459.837,541.175L459.475,540.431C458.958,539.361 458.455,538.289 457.965,537.216L457.72,536.676C457.607,536.426 457.495,536.175 457.382,535.924L457.049,535.172L456.721,534.42C456.881,534.79 457.044,535.16 457.208,535.531L457.382,535.924C457.495,536.175 457.607,536.426 457.72,536.676L457.965,537.216C458.455,538.289 458.958,539.361 459.475,540.431L459.837,541.175L460.002,541.51C460.506,542.534 461.024,543.556 461.554,544.576C461.79,545.029 462.028,545.481 462.269,545.934C463.478,548.204 464.756,550.468 466.11,552.727L466.329,553.093L466.604,553.547C470.717,560.317 475.515,567.047 481.17,573.767L480.554,573.031ZM456.396,533.666C456.181,533.164 455.969,532.662 455.759,532.158L456.076,532.913L456.396,533.666ZM431.723,454.336C431.948,454.748 432.17,455.162 432.389,455.576L432.058,454.955L431.723,454.336ZM431.039,453.101C429.882,451.048 428.649,449.021 427.344,447.025L426.95,446.427C428.534,448.815 430.015,451.248 431.383,453.718L431.039,453.101ZM425.742,444.643C425.36,444.091 424.972,443.541 424.578,442.993C424.13,442.369 423.674,441.748 423.211,441.13L422.774,440.551C423.388,441.359 423.99,442.174 424.578,442.993C425.112,443.736 425.636,444.484 426.149,445.236L425.742,444.643ZM250.333,423.612C250.338,423.579 250.343,423.561 250.351,423.528L250.357,423.495L250.364,423.464C250.37,423.441 250.378,423.408 250.381,423.386C250.387,423.363 250.392,423.345 250.395,423.323C250.399,423.301 250.409,423.267 250.412,423.244L250.472,422.971L250.453,423.06C250.457,423.045 250.46,423.031 250.463,423.016L250.472,422.971L250.503,422.834C250.506,422.822 250.507,422.821 250.51,422.81C250.51,422.81 250.546,422.641 250.546,422.641L250.572,422.529L250.588,422.454L250.6,422.404L250.607,422.368L250.615,422.332L250.802,421.507L250.847,421.314L251.035,420.5L251.055,420.414L251.234,419.656L251.273,419.492L251.47,418.671L251.494,418.572L251.685,417.789L251.709,417.694L251.921,416.842L251.939,416.771L252.158,415.908L252.39,415.01L252.393,414.998C252.885,413.108 253.399,411.242 253.933,409.399L254.113,408.781L254.193,408.511C255.458,404.215 256.835,400.048 258.316,396.009L258.611,395.211L258.899,394.442C259.52,392.793 260.158,391.166 260.814,389.56C260.158,391.166 259.519,392.793 258.899,394.442L258.611,395.211L258.316,396.009C256.835,400.048 255.458,404.215 254.193,408.511L254.113,408.781L253.933,409.399C253.399,411.241 252.886,413.108 252.393,414.998L252.39,415.01C252.39,415.01 252.158,415.908 252.158,415.908L251.928,416.815L251.701,417.726L251.477,418.64L251.257,419.558L251.04,420.479L250.826,421.404L250.615,422.332C250.677,422.056 250.74,421.779 250.802,421.507L250.826,421.404L250.847,421.314C250.909,421.042 250.972,420.77 251.035,420.5L251.04,420.479L251.055,420.414L251.166,419.942L251.234,419.656L251.257,419.558L251.273,419.492C251.338,419.219 251.403,418.946 251.47,418.671L251.477,418.64L251.494,418.572L251.593,418.164L251.685,417.789L251.701,417.726L251.709,417.694C251.779,417.408 251.85,417.123 251.921,416.842L251.928,416.815L251.939,416.771C252.087,416.182 252.238,415.595 252.39,415.01L252.393,414.998C258.237,392.566 267.039,373.452 277.879,357.566C321.14,294.167 396.831,282.187 446.431,316.019C478.319,337.771 499.42,378.464 494.169,436.596C494.157,436.704 494.148,436.814 494.14,436.922C494.01,438.403 493.932,439.834 493.888,441.23C493.885,441.274 493.88,441.319 493.876,441.364C490.58,483.95 467.251,574.958 555.395,627.687C545.194,624.298 535.28,619.496 525.949,613.161L524.989,612.503C485.648,585.494 466.591,559.039 455.447,531.403L455.139,530.635C448.724,514.504 444.961,497.967 441.394,480.675C438.479,466.538 431.963,452.811 422.774,440.551L422.356,439.997C386.669,392.954 311.566,367.872 250.054,424.904L250.116,424.612L250.126,424.568C250.124,424.576 250.122,424.584 250.12,424.592L250.115,424.616L250.118,424.602L250.148,424.461C250.151,424.449 250.153,424.436 250.157,424.424L250.19,424.268L250.19,424.268L250.19,424.267L250.227,424.096L250.228,424.092L250.217,424.14L250.227,424.096L250.284,423.828C250.287,423.821 250.289,423.812 250.29,423.806L250.333,423.612L250.326,423.64L250.333,423.612ZM261.468,387.977C264.109,381.674 267.015,375.71 270.155,370.081C274.848,363.318 274.848,363.318 270.155,370.081C266.885,375.944 263.868,382.171 261.14,388.767L261.468,387.977Z" style="fill:url(#_Linear5);"/>
                </g>
                <g transform="matrix(-0.563637,0.826022,0.826022,0.563637,219.224,-91.35)">
                    <path d="M316.353,191.188C291.941,165.944 296.819,108.098 347.792,96.592C286.498,78.954 253.081,156.133 320.636,195.696L320.661,195.71C319.25,194.201 317.812,192.698 316.353,191.188Z" style="fill:url(#_Linear6);"/>
                </g>
            </g>
        </g>
        <g transform="matrix(3.57979,0,0,3.57979,-1323.77,-670.636)">
            <text id="slogan" x="441.119px" y="428.851px" style="font-family:'Raleway-Regular', 'Raleway', sans-serif;font-size:8.162px;fill:white;">D<tspan x="447.77px 453.437px 459.207px 464.994px 472.111px 478.26px 485.206px 489.888px 496.246px 502.033px 509.15px 515.802px 522.748px 525.645px 528.485px 535.137px 540.924px 543.764px 550.009px " y="428.851px 428.851px 428.851px 428.851px 428.851px 428.851px 428.851px 428.851px 428.851px 428.851px 428.851px 428.851px 428.851px 428.851px 428.851px 428.851px 428.851px 428.851px 428.851px ">ESENVOLVENDO IDEIAS</tspan></text>
        </g>
        <g id="title" transform="matrix(4.95271,0,0,5.03248,-1956.36,-1336.15)">
            <text x="441.119px" y="428.851px" style="font-family:'Raleway-Light', 'Raleway', sans-serif;font-weight:300;font-size:24px;fill:rgb(255,181,0);">F<tspan x="454.991px 472.295px " y="428.851px 428.851px ">OX</tspan></text>
            <text x="487.367px" y="428.851px" style="font-family:'Raleway-Light', 'Raleway', sans-serif;font-weight:300;font-size:24px;fill:rgb(234,0,46);">KEY</text>
        </g>
    </g>
    <defs>
        <linearGradient id="_Linear1" x1="0" y1="0" x2="1" y2="0" gradientUnits="userSpaceOnUse" gradientTransform="matrix(-142.161,51.2913,-51.2913,-142.161,217.269,248.255)"><stop offset="0" style="stop-color:white;stop-opacity:1"/><stop offset="1" style="stop-color:rgb(234,0,46);stop-opacity:1"/></linearGradient>
        <linearGradient id="_Linear2" x1="0" y1="0" x2="1" y2="0" gradientUnits="userSpaceOnUse" gradientTransform="matrix(16.2938,127.196,-127.196,16.2938,685.591,383.395)"><stop offset="0" style="stop-color:white;stop-opacity:1"/><stop offset="1" style="stop-color:rgb(234,0,46);stop-opacity:1"/></linearGradient>
        <linearGradient id="_Linear4" x1="0" y1="0" x2="1" y2="0" gradientUnits="userSpaceOnUse" gradientTransform="matrix(-20.8811,-295.506,295.506,-20.8811,586.559,634.725)"><stop offset="0" style="stop-color:rgb(221,30,57);stop-opacity:1"/><stop offset="0.4" style="stop-color:rgb(235,94,36);stop-opacity:1"/><stop offset="1" style="stop-color:rgb(253,186,17);stop-opacity:1"/></linearGradient>
        <linearGradient id="_Linear5" x1="0" y1="0" x2="1" y2="0" gradientUnits="userSpaceOnUse" gradientTransform="matrix(-164.902,-252.654,252.654,-164.902,542.141,620.636)"><stop offset="0" style="stop-color:rgb(234,0,46);stop-opacity:1"/><stop offset="0.4" style="stop-color:rgb(235,94,36);stop-opacity:1"/><stop offset="1" style="stop-color:rgb(255,181,0);stop-opacity:1"/></linearGradient>
        <linearGradient id="_Linear6" x1="0" y1="0" x2="1" y2="0" gradientUnits="userSpaceOnUse" gradientTransform="matrix(-25.1718,69.3568,-69.3568,-25.1718,295.802,140.721)"><stop offset="0" style="stop-color:white;stop-opacity:1"/><stop offset="1" style="stop-color:rgb(234,0,46);stop-opacity:1"/></linearGradient>
    </defs>
</svg>
